<svg width="500" height="750" viewBox="0 0 500 750" fill="none" xmlns="http://www.w3.org/2000/svg">
<g id="mobile-load">
<rect id="background" width="500" height="750" rx="10" fill="white"/>
<g id="bottom-page">
<g id="skeleton-images">
<rect id="Rectangle 7" x="19" y="331" width="220" height="142" fill="#D9D9D9"/>
<rect id="Rectangle 8" x="262" y="331" width="220" height="142" fill="#D9D9D9"/>
<rect id="Rectangle 9" x="262" y="535" width="220" height="142" fill="#D9D9D9"/>
<rect id="Rectangle 10" x="19" y="535" width="220" height="142" fill="#D9D9D9"/>
</g>
<g id="notification">
<path id="Ellipse 4" d="M392 606C392 617.046 383.046 626 372 626C360.954 626 352 617.046 352 606C352 594.954 360.954 586 372 586C383.046 586 392 594.954 392 606Z" fill="#00FF00"/>
<circle id="Ellipse 3" cx="129" cy="606" r="20" fill="#00FF00"/>
<path id="Ellipse 2" d="M392 402C392 413.046 383.046 422 372 422C360.954 422 352 413.046 352 402C352 390.954 360.954 382 372 382C383.046 382 392 390.954 392 402Z" fill="#00FF00"/>
<circle id="Ellipse 1" cx="129" cy="402" r="20" fill="#00FF00"/>
</g>
</g>
<g id="skeleton-paragraph">
<path id="Rectangle 1" d="M14 69H487V101H14V69Z" fill="#D9D9D9"/>
<path id="Rectangle 2" d="M14 112H254V144H14V112Z" fill="#D9D9D9"/>
<path id="Rectangle 3" d="M14 155H254V187H14V155Z" fill="#D9D9D9"/>
<path id="Rectangle 5" d="M14 241H254V273H14V241Z" fill="#D9D9D9"/>
<path id="Rectangle 4" d="M14 198H254V230H14V198Z" fill="#D9D9D9"/>
<rect id="Rectangle 6" x="267" y="112" width="220" height="161" fill="#D9D9D9"/>
</g>
</g>
</svg>
